<?xml version="1.0" encoding="UTF-8" standalone="no"?><!DOCTYPE svg PUBLIC "-//W3C//DTD SVG 1.1//EN" "http://www.w3.org/Graphics/SVG/1.1/DTD/svg11.dtd"><svg width="100%" height="100%" viewBox="0 0 1024 300" version="1.1" xmlns="http://www.w3.org/2000/svg" xmlns:xlink="http://www.w3.org/1999/xlink" xml:space="preserve" xmlns:serif="http://www.serif.com/" style="fill-rule:evenodd;clip-rule:evenodd;stroke-linejoin:round;stroke-miterlimit:2;"><g><path d="M35.926,110.385l-0,-1.584c-1.152,0 -2.4,-0.096 -3.744,-0.288c-1.344,-0.192 -2.592,-0.528 -3.744,-1.008c-1.152,-0.48 -2.112,-1.104 -2.88,-1.872c-0.768,-0.768 -1.152,-1.776 -1.152,-3.024l-0,-52.416c-0,-1.152 0.36,-2.112 1.08,-2.88c0.72,-0.768 1.656,-1.416 2.808,-1.944c1.152,-0.528 2.4,-0.912 3.744,-1.152c1.344,-0.24 2.64,-0.36 3.888,-0.36l-0,-1.584l-34.992,0l-0,1.584c1.344,0 2.688,0.12 4.032,0.36c1.344,0.24 2.568,0.6 3.672,1.08c1.104,0.48 2.016,1.104 2.736,1.872c0.72,0.768 1.08,1.728 1.08,2.88l-0,52.416c-0,1.056 -0.336,1.992 -1.008,2.808c-0.672,0.816 -1.512,1.464 -2.52,1.944c-1.008,0.48 -2.16,0.864 -3.456,1.152c-1.296,0.288 -2.616,0.432 -3.96,0.432l-0,1.584l34.416,0Z" style="fill-opacity:0.5;fill-rule:nonzero;"/><path d="M81.43,110.385l-0,-1.584c-1.152,0 -2.4,-0.096 -3.744,-0.288c-1.344,-0.192 -2.592,-0.528 -3.744,-1.008c-1.152,-0.48 -2.112,-1.104 -2.88,-1.872c-0.768,-0.768 -1.152,-1.776 -1.152,-3.024l-0,-52.416c-0,-1.152 0.36,-2.112 1.08,-2.88c0.72,-0.768 1.656,-1.416 2.808,-1.944c1.152,-0.528 2.4,-0.912 3.744,-1.152c1.344,-0.24 2.64,-0.36 3.888,-0.36l-0,-1.584l-34.992,0l-0,1.584c1.344,0 2.688,0.12 4.032,0.36c1.344,0.24 2.568,0.6 3.672,1.08c1.104,0.48 2.016,1.104 2.736,1.872c0.72,0.768 1.08,1.728 1.08,2.88l-0,52.416c-0,1.056 -0.336,1.992 -1.008,2.808c-0.672,0.816 -1.512,1.464 -2.52,1.944c-1.008,0.48 -2.16,0.864 -3.456,1.152c-1.296,0.288 -2.616,0.432 -3.96,0.432l-0,1.584l34.416,0Z" style="fill-opacity:0.5;fill-rule:nonzero;"/><path d="M135.97,110.456l-13.992,-0l-13.922,-0.071c-3.282,0 -5.578,-0.211 -6.891,-0.633c-2.391,-0.843 -3.586,-2.625 -3.586,-5.343c0,-4.735 3.68,-7.102 11.039,-7.102l3.375,0.07l2.883,0.141c0,-2.25 -0.199,-5.578 -0.598,-9.984c-0.398,-4.407 -0.597,-7.711 -0.597,-9.914c-0,-5.953 0.539,-15 1.617,-27.141c1.031,-11.953 1.523,-21.023 1.476,-27.211c-6.281,4.875 -10.289,7.313 -12.023,7.313c-1.875,-0 -3.504,-0.704 -4.887,-2.11c-1.383,-1.406 -2.074,-3.023 -2.074,-4.851c0,-2.203 2.016,-4.875 6.047,-8.016c2.531,-1.781 6.117,-4.641 10.758,-8.578c4.125,-4.172 8.062,-6.258 11.812,-6.258c3.141,0 4.711,1.805 4.711,5.414c0,1.078 -0.14,2.684 -0.422,4.817c-0.281,2.132 -0.422,3.738 -0.422,4.816c0,1.547 0.082,3.891 0.247,7.031c0.164,3.141 0.246,5.485 0.246,7.031c-0,5.344 -0.563,13.313 -1.688,23.907c-1.125,10.593 -1.687,18.539 -1.687,23.836c-0,2.718 0.187,6.023 0.562,9.914c0.375,3.89 0.586,7.078 0.633,9.562l7.383,-0.14c1.969,-0 3.597,0.644 4.886,1.933c1.29,1.289 1.934,2.895 1.934,4.817c0,1.968 -0.644,3.586 -1.934,4.851c-1.289,1.266 -2.917,1.899 -4.886,1.899Z" style="fill-opacity:0.5;fill-rule:nonzero;"/><path d="M200.798,110.456l-13.992,-0l-13.922,-0.071c-3.281,0 -5.578,-0.211 -6.891,-0.633c-2.39,-0.843 -3.586,-2.625 -3.586,-5.343c0,-4.735 3.68,-7.102 11.039,-7.102l3.375,0.07l2.883,0.141c0,-2.25 -0.199,-5.578 -0.598,-9.984c-0.398,-4.407 -0.597,-7.711 -0.597,-9.914c-0,-5.953 0.539,-15 1.617,-27.141c1.031,-11.953 1.523,-21.023 1.477,-27.211c-6.282,4.875 -10.289,7.313 -12.024,7.313c-1.875,-0 -3.504,-0.704 -4.887,-2.11c-1.382,-1.406 -2.074,-3.023 -2.074,-4.851c0,-2.203 2.016,-4.875 6.047,-8.016c2.531,-1.781 6.117,-4.641 10.758,-8.578c4.125,-4.172 8.062,-6.258 11.812,-6.258c3.141,0 4.711,1.805 4.711,5.414c0,1.078 -0.14,2.684 -0.422,4.817c-0.281,2.132 -0.421,3.738 -0.421,4.816c-0,1.547 0.082,3.891 0.246,7.031c0.164,3.141 0.246,5.485 0.246,7.031c-0,5.344 -0.563,13.313 -1.688,23.907c-1.125,10.593 -1.687,18.539 -1.687,23.836c-0,2.718 0.187,6.023 0.562,9.914c0.375,3.89 0.586,7.078 0.633,9.562l7.383,-0.14c1.969,-0 3.598,0.644 4.887,1.933c1.289,1.289 1.933,2.895 1.933,4.817c0,1.968 -0.644,3.586 -1.933,4.851c-1.289,1.266 -2.918,1.899 -4.887,1.899Z" style="fill-opacity:0.5;fill-rule:nonzero;"/><path d="M278.19,103.185l-0.144,-99.504l-54.72,27.504l0,8.784l17.28,-8.352l0,71.568l-17.28,0l0,7.2l72.144,0l0,-7.2l-17.28,0Z" style="fill-opacity:0.5;fill-rule:nonzero;"/><path d="M364.734,103.185l-0.144,-99.504l-54.72,27.504l0,8.784l17.28,-8.352l0,71.568l-17.28,0l0,7.2l72.144,0l0,-7.2l-17.28,0Z" style="fill-opacity:0.5;fill-rule:nonzero;"/><path d="M422.19,108.657c0.96,0 1.8,-0.264 2.52,-0.792c0.72,-0.528 1.08,-1.608 1.08,-3.24l0,-48.096c-0.672,0 -1.464,0.048 -2.376,0.144c-0.912,0.096 -1.8,0.264 -2.664,0.504c-0.864,0.24 -1.656,0.576 -2.376,1.008c-0.72,0.432 -1.224,1.032 -1.512,1.8l-1.728,0l0,-18.144l1.728,0c0,0.864 0.432,1.464 1.296,1.8c0.864,0.336 1.68,0.504 2.448,0.504c1.632,0 3,-0.504 4.104,-1.512c1.104,-1.008 1.656,-2.232 1.656,-3.672c0,-1.344 -0.312,-2.208 -0.936,-2.592c-0.624,-0.384 -1.464,-0.672 -2.52,-0.864l0,-1.728l23.328,0l0,1.728c-1.152,0.192 -2.112,0.528 -2.88,1.008c-0.768,0.48 -1.152,1.2 -1.152,2.16l0,65.952c0,1.632 0.384,2.712 1.152,3.24c0.768,0.528 1.632,0.792 2.592,0.792l0,1.728l-23.76,0l0,-1.728Z" style="fill-opacity:0.5;fill-rule:nonzero;"/><path d="M510.174,108.657c0.96,0 1.8,-0.264 2.52,-0.792c0.72,-0.528 1.08,-1.608 1.08,-3.24l0,-48.096c-0.672,0 -1.464,0.048 -2.376,0.144c-0.912,0.096 -1.8,0.264 -2.664,0.504c-0.864,0.24 -1.656,0.576 -2.376,1.008c-0.72,0.432 -1.224,1.032 -1.512,1.8l-1.728,0l0,-18.144l1.728,0c0,0.864 0.432,1.464 1.296,1.8c0.864,0.336 1.68,0.504 2.448,0.504c1.632,0 3,-0.504 4.104,-1.512c1.104,-1.008 1.656,-2.232 1.656,-3.672c0,-1.344 -0.312,-2.208 -0.936,-2.592c-0.624,-0.384 -1.464,-0.672 -2.52,-0.864l0,-1.728l23.328,0l0,1.728c-1.152,0.192 -2.112,0.528 -2.88,1.008c-0.768,0.48 -1.152,1.2 -1.152,2.16l0,65.952c0,1.632 0.384,2.712 1.152,3.24c0.768,0.528 1.632,0.792 2.592,0.792l0,1.728l-23.76,0l0,-1.728Z" style="fill-opacity:0.5;fill-rule:nonzero;"/><path d="M587.502,110.385l0,-86.976l-14.688,10.8l0,-15.552l14.688,-10.8l14.688,0l0,102.528l-14.688,0Z" style="fill-opacity:0.5;fill-rule:nonzero;"/><path d="M641.07,110.385l0,-86.976l-14.688,10.8l0,-15.552l14.688,-10.8l14.688,0l0,102.528l-14.688,0Z" style="fill-opacity:0.5;fill-rule:nonzero;"/><path d="M718.443,20.948l0,83.531l20.25,0c1.406,0 2.414,0.27 3.023,0.809c0.61,0.539 0.915,1.254 0.915,2.144c-0,0.844 -0.305,1.547 -0.915,2.11c-0.609,0.562 -1.617,0.843 -3.023,0.843l-46.406,0c-1.406,0 -2.414,-0.281 -3.024,-0.843c-0.609,-0.563 -0.914,-1.266 -0.914,-2.11c0,-0.89 0.305,-1.605 0.914,-2.144c0.61,-0.539 1.618,-0.809 3.024,-0.809l20.25,0l-0,-75.375l-19.266,6.047c-0.937,0.281 -1.617,0.422 -2.039,0.422c-0.703,-0 -1.348,-0.293 -1.934,-0.879c-0.585,-0.586 -0.878,-1.277 -0.878,-2.074c-0,-0.703 0.234,-1.36 0.703,-1.969c0.375,-0.375 1.148,-0.774 2.32,-1.195l27,-8.508Z" style="fill-opacity:0.5;fill-rule:nonzero;"/><path d="M804.857,20.948l0,83.531l20.25,0c1.406,0 2.414,0.27 3.024,0.809c0.609,0.539 0.914,1.254 0.914,2.144c-0,0.844 -0.305,1.547 -0.914,2.11c-0.61,0.562 -1.618,0.843 -3.024,0.843l-46.406,0c-1.406,0 -2.414,-0.281 -3.024,-0.843c-0.609,-0.563 -0.914,-1.266 -0.914,-2.11c0,-0.89 0.305,-1.605 0.914,-2.144c0.61,-0.539 1.618,-0.809 3.024,-0.809l20.25,0l-0,-75.375l-19.266,6.047c-0.937,0.281 -1.617,0.422 -2.039,0.422c-0.703,-0 -1.348,-0.293 -1.933,-0.879c-0.586,-0.586 -0.879,-1.277 -0.879,-2.074c-0,-0.703 0.234,-1.36 0.703,-1.969c0.375,-0.375 1.148,-0.774 2.32,-1.195l27,-8.508Z" style="fill-opacity:0.5;fill-rule:nonzero;"/><path d="M853.091,110.385l0,-8.648l31.219,-0l0,-83.11l-31.219,12.446l0,-9.281l45.141,-18.071l0,98.016l31.219,-0l-0,8.648l-76.36,0Z" style="fill-opacity:0.5;fill-rule:nonzero;"/><path d="M939.506,110.385l-0,-8.648l31.218,-0l0,-83.11l-31.218,12.446l-0,-9.281l45.14,-18.071l0,98.016l31.219,-0l-0,8.648l-76.359,0Z" style="fill-opacity:0.5;fill-rule:nonzero;"/><path d="M17.118,283.213l0,-10.406l20.813,0l-0,-82.125l-20.813,5.203l0,-10.687l34.734,-8.649l0,96.258l20.813,0l-0,10.406l-55.547,0Z" style="fill-opacity:0.5;fill-rule:nonzero;"/><path d="M108.173,283.213l-0,-10.406l20.812,0l0,-82.125l-20.812,5.203l-0,-10.687l34.734,-8.649l0,96.258l20.813,0l-0,10.406l-55.547,0Z" style="fill-opacity:0.5;fill-rule:nonzero;"/><path d="M246.547,283.213l-47.664,0l0,-9.216l16.416,0l0,-81.216l-16.992,8.928l-3.888,-7.056l20.88,-12.24l15.12,0l0,91.584l16.128,0l0,9.216Z" style="fill-opacity:0.5;fill-rule:nonzero;"/><path d="M332.947,283.213l-47.664,0l0,-9.216l16.416,0l0,-81.216l-16.992,8.928l-3.888,-7.056l20.88,-12.24l15.12,0l0,91.584l16.128,0l0,9.216Z" style="fill-opacity:0.5;fill-rule:nonzero;"/><path d="M415.621,270.276l0,12.937l-42.82,0l-0,-12.937l14.555,-0l-0,-80.227l-14.555,0l-0,-12.656l29.109,0l0,92.883l13.711,-0Z" style="fill-opacity:0.5;fill-rule:nonzero;"/><path d="M500.137,270.276l-0,12.937l-42.821,0l0,-12.937l14.555,-0l0,-80.227l-14.555,0l0,-12.656l29.11,0l-0,92.883l13.711,-0Z" style="fill-opacity:0.5;fill-rule:nonzero;"/><path d="M558.138,271.981l0,-84.24l-1.728,0l-16.56,37.872l-11.952,0l0,-0.864l18.864,-42.336l23.472,0l0,89.568l28.512,0l0,11.232l-69.12,0l0,-11.232l28.512,0Z" style="fill-opacity:0.5;fill-rule:nonzero;"/><path d="M646.266,271.981l0,-84.24l-1.728,0l-16.56,37.872l-11.952,0l0,-0.864l18.864,-42.336l23.472,0l0,89.568l28.512,0l0,11.232l-69.12,0l0,-11.232l28.512,0Z" style="fill-opacity:0.5;fill-rule:nonzero;"/><path d="M735.567,272.311l-0,-84.206c-3.931,3.108 -7.749,5.771 -11.451,7.988c-3.703,2.218 -8.778,4.469 -15.223,6.755l-0,-11.795c10.24,-4.388 19.131,-10.034 26.674,-16.937l13.097,0l0,98.195l26.263,-0l-0,10.902l-66.034,0l-0,-10.902l26.674,-0Z" style="fill-opacity:0.5;fill-rule:nonzero;"/><path d="M821.967,272.311l-0,-84.206c-3.931,3.108 -7.749,5.771 -11.451,7.988c-3.703,2.218 -8.778,4.469 -15.223,6.755l-0,-11.795c10.24,-4.388 19.131,-10.034 26.674,-16.937l13.097,0l0,98.195l26.263,-0l-0,10.902l-66.034,0l-0,-10.902l26.674,-0Z" style="fill-opacity:0.5;fill-rule:nonzero;"/><path d="M890.607,208.893c-1.828,22.453 -2.742,41.508 -2.742,57.164c-0,4.36 0.07,8.32 0.211,11.883c0.14,3.516 -1.079,5.273 -3.657,5.273c-2.859,0 -4.289,-1.711 -4.289,-5.132c0,-19.922 0.516,-39.914 1.547,-59.977c-1.078,0.094 -1.851,-0.387 -2.32,-1.441c-0.469,-1.055 -0.586,-2.426 -0.352,-4.114c0.891,-6.093 3.211,-9.14 6.961,-9.14c3.375,-0 4.922,1.828 4.641,5.484Z" style="fill-opacity:0.5;fill-rule:nonzero;"/><path d="M923.302,208.893c-1.828,22.453 -2.742,41.508 -2.742,57.164c-0,4.36 0.07,8.32 0.211,11.883c0.141,3.516 -1.078,5.273 -3.656,5.273c-2.86,0 -4.289,-1.711 -4.289,-5.132c-0,-19.922 0.515,-39.914 1.546,-59.977c-1.078,0.094 -1.851,-0.387 -2.32,-1.441c-0.469,-1.055 -0.586,-2.426 -0.351,-4.114c0.89,-6.093 3.211,-9.14 6.961,-9.14c3.375,-0 4.921,1.828 4.64,5.484Z" style="fill-opacity:0.5;fill-rule:nonzero;"/><path d="M988.857,282.349c-1.248,2.88 -4.416,4.32 -9.504,4.32c-4.8,0 -9.168,-1.152 -13.104,-3.456c-4.32,-2.592 -6.192,-5.664 -5.616,-9.216c0.288,-1.44 1.344,-3.096 3.168,-4.968c1.824,-1.872 2.688,-3.48 2.592,-4.824l-2.592,-63.936c-0.096,-2.208 -2.256,-4.416 -6.48,-6.624c-4.224,-2.208 -6.384,-4.896 -6.48,-8.064c2.88,-6.048 6.192,-10.848 9.936,-14.4c3.456,-3.36 6.672,-5.184 9.648,-5.472c4.032,-0.384 7.68,0.72 10.944,3.312c3.264,2.592 4.8,5.808 4.608,9.648c0,1.056 -0.528,2.328 -1.584,3.816c-1.056,1.488 -1.584,2.808 -1.584,3.96l2.304,76.032c0.096,2.112 0.96,4.488 2.592,7.128c1.632,2.64 2.448,4.92 2.448,6.84c0,1.728 -0.432,3.696 -1.296,5.904Z" style="fill-opacity:0.5;fill-rule:nonzero;"/></g><g><rect x="197" y="100" width="630" height="100" style="fill-opacity:0.5;"/><g><path d="M251.972,171.096l-10.368,0l-0.576,-21.384c-0.048,-1.056 -0.072,-2.496 -0.072,-4.32c-0,-2.4 0.072,-4.74 0.216,-7.02c0.144,-2.28 0.312,-4.668 0.504,-7.164l-5.616,31.392l-8.928,0l-6.12,-31.392c0.528,5.52 0.792,10.488 0.792,14.904l-0.072,3.816l-0.36,21.168l-10.152,0l2.808,-49.896l12.168,0l5.544,32.256l5.256,-32.256l12.168,-0l2.808,49.896Z" style="fill:#fff;fill-rule:nonzero;"/><path d="M274.796,131.568c5.808,-0 10.356,1.836 13.644,5.508c3.288,3.672 4.932,8.604 4.932,14.796c-0,6.432 -1.632,11.448 -4.896,15.048c-3.264,3.6 -7.824,5.4 -13.68,5.4c-5.856,-0 -10.416,-1.788 -13.68,-5.364c-3.264,-3.576 -4.896,-8.58 -4.896,-15.012c-0,-4.08 0.732,-7.644 2.196,-10.692c1.464,-3.048 3.6,-5.424 6.408,-7.128c2.808,-1.704 6.132,-2.556 9.972,-2.556Zm-0,8.424c-2.352,0 -4.08,0.948 -5.184,2.844c-1.104,1.896 -1.656,4.932 -1.656,9.108c-0,4.224 0.552,7.284 1.656,9.18c1.104,1.896 2.832,2.844 5.184,2.844c2.352,-0 4.08,-0.96 5.184,-2.88c1.104,-1.92 1.656,-4.992 1.656,-9.216c-0,-4.128 -0.552,-7.14 -1.656,-9.036c-1.104,-1.896 -2.832,-2.844 -5.184,-2.844Z" style="fill:#fff;fill-rule:nonzero;"/><path d="M337.508,132.864l-12.744,38.232l-13.392,0l-12.888,-38.232l12.312,0l7.416,29.52l7.776,-29.52l11.52,0Z" style="fill:#fff;fill-rule:nonzero;"/><path d="M361.124,112.848c1.968,0 3.576,0.612 4.824,1.836c1.248,1.224 1.872,2.748 1.872,4.572c-0,1.872 -0.624,3.408 -1.872,4.608c-1.248,1.2 -2.856,1.8 -4.824,1.8c-1.968,0 -3.588,-0.612 -4.86,-1.836c-1.272,-1.224 -1.908,-2.748 -1.908,-4.572c-0,-1.824 0.636,-3.348 1.908,-4.572c1.272,-1.224 2.892,-1.836 4.86,-1.836Zm6.84,20.016l-0,30.456l9.792,0l-0,7.776l-31.968,0l-0,-7.776l10.8,0l-0,-22.68l-10.44,0l-0,-7.776l21.816,0Z" style="fill:#fff;fill-rule:nonzero;"/><path d="M387.836,132.864l9.936,0l0.792,4.392c1.728,-1.92 3.54,-3.348 5.436,-4.284c1.896,-0.936 4.044,-1.404 6.444,-1.404c3.312,-0 5.892,1.008 7.74,3.024c1.848,2.016 2.772,4.824 2.772,8.424l-0,28.08l-11.376,-0l-0,-24.768c-0,-2.4 -0.264,-4.056 -0.792,-4.968c-0.528,-0.912 -1.488,-1.368 -2.88,-1.368c-1.152,-0 -2.268,0.372 -3.348,1.116c-1.08,0.744 -2.196,1.836 -3.348,3.276l-0,26.712l-11.376,-0l-0,-38.232Z" style="fill:#fff;fill-rule:nonzero;"/><path d="M467.612,135.096c-2.496,1.008 -6.168,1.512 -11.016,1.512c2.496,1.104 4.356,2.424 5.58,3.96c1.224,1.536 1.836,3.504 1.836,5.904c-0,2.448 -0.672,4.644 -2.016,6.588c-1.344,1.944 -3.24,3.468 -5.688,4.572c-2.448,1.104 -5.28,1.656 -8.496,1.656c-1.584,0 -3.072,-0.144 -4.464,-0.432c-0.384,0.192 -0.684,0.492 -0.9,0.9c-0.216,0.408 -0.324,0.828 -0.324,1.26c-0,0.72 0.276,1.284 0.828,1.692c0.552,0.408 1.668,0.612 3.348,0.612l6.336,-0c2.88,-0 5.424,0.48 7.632,1.44c2.208,0.96 3.912,2.28 5.112,3.96c1.2,1.68 1.8,3.576 1.8,5.688c-0,3.984 -1.74,7.092 -5.22,9.324c-3.48,2.232 -8.556,3.348 -15.228,3.348c-4.752,-0 -8.484,-0.492 -11.196,-1.476c-2.712,-0.984 -4.608,-2.364 -5.688,-4.14c-1.08,-1.776 -1.62,-4.008 -1.62,-6.696l10.08,-0c-0,1.2 0.228,2.136 0.684,2.808c0.456,0.672 1.308,1.176 2.556,1.512c1.248,0.336 3.072,0.504 5.472,0.504c3.36,-0 5.676,-0.384 6.948,-1.152c1.272,-0.768 1.908,-1.848 1.908,-3.24c-0,-1.152 -0.468,-2.076 -1.404,-2.772c-0.936,-0.696 -2.316,-1.044 -4.14,-1.044l-6.048,-0c-3.936,-0 -6.888,-0.708 -8.856,-2.124c-1.968,-1.416 -2.952,-3.228 -2.952,-5.436c-0,-1.44 0.372,-2.796 1.116,-4.068c0.744,-1.272 1.788,-2.34 3.132,-3.204c-2.4,-1.296 -4.128,-2.82 -5.184,-4.572c-1.056,-1.752 -1.584,-3.876 -1.584,-6.372c-0,-2.832 0.72,-5.304 2.16,-7.416c1.44,-2.112 3.456,-3.732 6.048,-4.86c2.592,-1.128 5.544,-1.692 8.856,-1.692c3.84,0.096 7.104,-0.276 9.792,-1.116c2.688,-0.84 5.424,-2.1 8.208,-3.78l2.592,8.352Zm-20.304,3.96c-1.824,0 -3.252,0.576 -4.284,1.728c-1.032,1.152 -1.548,2.712 -1.548,4.68c-0,2.064 0.528,3.672 1.584,4.824c1.056,1.152 2.472,1.728 4.248,1.728c1.872,-0 3.312,-0.564 4.32,-1.692c1.008,-1.128 1.512,-2.796 1.512,-5.004c-0,-4.176 -1.944,-6.264 -5.832,-6.264Z" style="fill:#fff;fill-rule:nonzero;"/><path d="M551.852,168.864c-3.6,2.304 -7.776,3.456 -12.528,3.456c-4.896,0 -8.58,-1.248 -11.052,-3.744c-2.472,-2.496 -3.708,-6 -3.708,-10.512l0,-17.352l-7.992,0l0,-7.848l7.992,0l0,-8.28l11.376,-1.368l0,9.648l12.312,0l-1.152,7.848l-11.16,0l0,17.352c0,1.872 0.432,3.216 1.296,4.032c0.864,0.816 2.256,1.224 4.176,1.224c2.4,0 4.632,-0.576 6.696,-1.728l3.744,7.272Z" style="fill:#fff;fill-rule:nonzero;"/><path d="M577.196,131.568c5.808,-0 10.356,1.836 13.644,5.508c3.288,3.672 4.932,8.604 4.932,14.796c0,6.432 -1.632,11.448 -4.896,15.048c-3.264,3.6 -7.824,5.4 -13.68,5.4c-5.856,-0 -10.416,-1.788 -13.68,-5.364c-3.264,-3.576 -4.896,-8.58 -4.896,-15.012c-0,-4.08 0.732,-7.644 2.196,-10.692c1.464,-3.048 3.6,-5.424 6.408,-7.128c2.808,-1.704 6.132,-2.556 9.972,-2.556Zm-0,8.424c-2.352,0 -4.08,0.948 -5.184,2.844c-1.104,1.896 -1.656,4.932 -1.656,9.108c-0,4.224 0.552,7.284 1.656,9.18c1.104,1.896 2.832,2.844 5.184,2.844c2.352,-0 4.08,-0.96 5.184,-2.88c1.104,-1.92 1.656,-4.992 1.656,-9.216c-0,-4.128 -0.552,-7.14 -1.656,-9.036c-1.104,-1.896 -2.832,-2.844 -5.184,-2.844Z" style="fill:#fff;fill-rule:nonzero;"/><path d="M672.38,162.456l9.288,0l0,8.64l-32.4,0l0,-8.64l12.024,0l0,-30.096l-10.296,6.48l-4.824,-7.848l16.128,-9.792l10.08,0l0,41.256Z" style="fill:#fff;fill-rule:nonzero;"/><path d="M715.58,162.456l9.288,0l0,8.64l-32.4,0l0,-8.64l12.024,0l0,-30.096l-10.296,6.48l-4.824,-7.848l16.128,-9.792l10.08,0l0,41.256Z" style="fill:#fff;fill-rule:nonzero;"/><path d="M767.852,168.864c-3.6,2.304 -7.776,3.456 -12.528,3.456c-4.896,0 -8.58,-1.248 -11.052,-3.744c-2.472,-2.496 -3.708,-6 -3.708,-10.512l0,-17.352l-7.992,0l0,-7.848l7.992,0l0,-8.28l11.376,-1.368l0,9.648l12.312,0l-1.152,7.848l-11.16,0l0,17.352c0,1.872 0.432,3.216 1.296,4.032c0.864,0.816 2.256,1.224 4.176,1.224c2.4,0 4.632,-0.576 6.696,-1.728l3.744,7.272Z" style="fill:#fff;fill-rule:nonzero;"/><path d="M800.036,171.096c-1.728,5.136 -4.296,9.012 -7.704,11.628c-3.408,2.616 -7.968,4.092 -13.68,4.428l-1.296,-8.064c3.648,-0.48 6.348,-1.296 8.1,-2.448c1.752,-1.152 3.156,-3 4.212,-5.544l-3.96,0l-12.096,-38.232l12.024,0l7.416,30.96l8.064,-30.96l11.664,0l-12.744,38.232Z" style="fill:#fff;fill-rule:nonzero;"/></g></g></svg>