<?xml version="1.0" encoding="UTF-8" standalone="no"?><!DOCTYPE svg PUBLIC "-//W3C//DTD SVG 1.1//EN" "http://www.w3.org/Graphics/SVG/1.1/DTD/svg11.dtd"><svg width="100%" height="100%" viewBox="0 0 1024 300" version="1.1" xmlns="http://www.w3.org/2000/svg" xmlns:xlink="http://www.w3.org/1999/xlink" xml:space="preserve" xmlns:serif="http://www.serif.com/" style="fill-rule:evenodd;clip-rule:evenodd;stroke-linejoin:round;stroke-miterlimit:2;"><g id="_11-bg" serif:id="11-bg"><path d="M624.112,108.961l-12.321,-12.32l19.143,-19.143l-47.654,-47.654l-0.916,0.917l4.48,33.398l-17.412,2.138l-5.396,-39.405l23.419,-23.42l58.752,58.752l15.07,-15.07l12.321,12.321l-49.486,49.486Z" style="fill:#2f3606;fill-opacity:0.5;fill-rule:nonzero;"/><path d="M685.206,47.867l-12.321,-12.32l19.143,-19.143l-47.654,-47.654l-0.916,0.917l4.48,33.398l-17.412,2.138l-5.396,-39.405l23.419,-23.42l58.752,58.752l15.07,-15.07l12.321,12.321l-49.486,49.486Z" style="fill:#2f3606;fill-opacity:0.5;fill-rule:nonzero;"/><path d="M593.891,334.885l-12.32,-12.32l19.143,-19.143l-47.654,-47.653l-0.916,0.916l4.48,33.398l-17.412,2.138l-5.396,-39.405l23.419,-23.42l58.752,58.752l15.07,-15.07l12.321,12.321l-49.487,49.486Z" style="fill:#2f3606;fill-opacity:0.5;fill-rule:nonzero;"/><path d="M654.985,273.791l-12.32,-12.32l19.143,-19.143l-47.654,-47.654l-0.916,0.917l4.48,33.398l-17.412,2.138l-5.396,-39.405l23.419,-23.42l58.752,58.752l15.07,-15.07l12.321,12.321l-49.487,49.486Z" style="fill:#2f3606;fill-opacity:0.5;fill-rule:nonzero;"/><path d="M723.797,204.98l-12.321,-12.32l19.143,-19.143l-47.654,-47.654l-0.916,0.917l4.48,33.398l-17.412,2.138l-5.396,-39.405l23.419,-23.42l58.752,58.752l15.07,-15.07l12.321,12.321l-49.486,49.486Z" style="fill:#2f3606;fill-opacity:0.5;fill-rule:nonzero;"/><path d="M784.891,143.886l-12.321,-12.32l19.143,-19.143l-47.654,-47.654l-0.916,0.917l4.48,33.398l-17.412,2.138l-5.396,-39.406l23.419,-23.419l58.752,58.752l15.07,-15.07l12.321,12.321l-49.486,49.486Z" style="fill:#2f3606;fill-opacity:0.5;fill-rule:nonzero;"/><path d="M856.051,72.726l-12.321,-12.321l19.143,-19.143l-47.653,-47.653l-0.917,0.917l4.48,33.398l-17.411,2.138l-5.397,-39.406l23.419,-23.419l58.752,58.752l15.07,-15.07l12.321,12.321l-49.486,49.486Z" style="fill:#2f3606;fill-opacity:0.5;fill-rule:nonzero;"/><path d="M917.145,11.632l-12.321,-12.321l19.143,-19.143l-47.653,-47.653l-0.917,0.917l4.48,33.398l-17.411,2.138l-5.397,-39.406l23.419,-23.419l58.753,58.752l15.069,-15.07l12.321,12.321l-49.486,49.486Z" style="fill:#2f3606;fill-opacity:0.5;fill-rule:nonzero;"/><path d="M479.681,449.096l-12.321,-12.321l19.143,-19.143l-47.653,-47.653l-0.917,0.917l4.48,33.398l-17.411,2.138l-5.397,-39.406l23.419,-23.419l58.752,58.752l15.07,-15.07l12.321,12.321l-49.486,49.486Z" style="fill:#2f3606;fill-opacity:0.5;fill-rule:nonzero;"/><path d="M540.775,388.002l-12.321,-12.321l19.143,-19.143l-47.653,-47.653l-0.917,0.917l4.48,33.398l-17.411,2.138l-5.397,-39.406l23.419,-23.419l58.752,58.752l15.07,-15.07l12.321,12.321l-49.486,49.486Z" style="fill:#2f3606;fill-opacity:0.5;fill-rule:nonzero;"/><path d="M400.324,142.897l-12.321,-12.321l19.143,-19.143l-47.653,-47.653l-0.917,0.916l4.481,33.398l-17.412,2.139l-5.397,-39.406l23.42,-23.419l58.752,58.752l15.07,-15.07l12.32,12.321l-49.486,49.486Z" style="fill:#2f3606;fill-opacity:0.5;fill-rule:nonzero;"/><path d="M461.418,81.803l-12.321,-12.321l19.143,-19.143l-47.653,-47.653l-0.917,0.916l4.481,33.398l-17.412,2.139l-5.397,-39.406l23.42,-23.419l58.752,58.752l15.07,-15.07l12.32,12.32l-49.486,49.487Z" style="fill:#2f3606;fill-opacity:0.5;fill-rule:nonzero;"/><path d="M913.501,387.807l-12.321,-12.32l19.143,-19.143l-47.654,-47.653l-0.916,0.916l4.48,33.398l-17.412,2.138l-5.396,-39.405l23.419,-23.42l58.752,58.753l15.07,-15.07l12.321,12.32l-49.486,49.486Z" style="fill:#2f3606;fill-opacity:0.5;fill-rule:nonzero;"/><path d="M974.595,326.713l-12.321,-12.32l19.143,-19.143l-47.654,-47.653l-0.916,0.916l4.48,33.398l-17.412,2.138l-5.396,-39.405l23.419,-23.42l58.752,58.753l15.07,-15.07l12.321,12.32l-49.486,49.486Z" style="fill:#2f3606;fill-opacity:0.5;fill-rule:nonzero;"/><path d="M1042.36,258.946l-12.321,-12.321l19.143,-19.142l-47.653,-47.654l-0.917,0.917l4.481,33.398l-17.412,2.138l-5.397,-39.406l23.42,-23.419l58.752,58.752l15.07,-15.07l12.32,12.321l-49.486,49.486Z" style="fill:#2f3606;fill-opacity:0.5;fill-rule:nonzero;"/><path d="M1103.46,197.852l-12.321,-12.321l19.143,-19.142l-47.653,-47.654l-0.917,0.917l4.481,33.398l-17.412,2.138l-5.397,-39.406l23.42,-23.419l58.752,58.752l15.07,-15.07l12.32,12.321l-49.486,49.486Z" style="fill:#2f3606;fill-opacity:0.5;fill-rule:nonzero;"/><path d="M819.026,291.754l-12.32,-12.32l19.142,-19.143l-47.653,-47.653l-0.916,0.916l4.48,33.398l-17.412,2.138l-5.397,-39.405l23.42,-23.42l58.752,58.752l15.07,-15.069l12.32,12.32l-49.486,49.486Z" style="fill:#2f3606;fill-opacity:0.5;fill-rule:nonzero;"/><path d="M880.12,230.66l-12.32,-12.32l19.142,-19.143l-47.653,-47.653l-0.916,0.916l4.48,33.398l-17.412,2.138l-5.397,-39.405l23.42,-23.42l58.752,58.752l15.07,-15.069l12.32,12.32l-49.486,49.486Z" style="fill:#2f3606;fill-opacity:0.5;fill-rule:nonzero;"/><path d="M948.931,161.849l-12.32,-12.32l19.142,-19.143l-47.653,-47.654l-0.916,0.917l4.48,33.398l-17.412,2.138l-5.397,-39.405l23.42,-23.42l58.752,58.752l15.07,-15.07l12.32,12.321l-49.486,49.486Z" style="fill:#2f3606;fill-opacity:0.5;fill-rule:nonzero;"/><path d="M1010.02,100.755l-12.32,-12.32l19.142,-19.143l-47.653,-47.654l-0.916,0.917l4.48,33.398l-17.412,2.138l-5.396,-39.405l23.419,-23.42l58.752,58.752l15.07,-15.07l12.32,12.321l-49.486,49.486Z" style="fill:#2f3606;fill-opacity:0.5;fill-rule:nonzero;"/><path d="M704.816,405.965l-12.321,-12.321l19.143,-19.142l-47.654,-47.654l-0.916,0.917l4.48,33.398l-17.412,2.138l-5.396,-39.406l23.419,-23.419l58.752,58.752l15.07,-15.07l12.321,12.321l-49.486,49.486Z" style="fill:#2f3606;fill-opacity:0.5;fill-rule:nonzero;"/><path d="M765.91,344.871l-12.321,-12.321l19.143,-19.142l-47.654,-47.654l-0.916,0.917l4.48,33.398l-17.412,2.138l-5.396,-39.406l23.419,-23.419l58.752,58.752l15.07,-15.07l12.321,12.321l-49.486,49.486Z" style="fill:#2f3606;fill-opacity:0.5;fill-rule:nonzero;"/><path d="M530.595,12.625l-12.32,-12.32l19.143,-19.143l-47.654,-47.653l-0.916,0.916l4.48,33.398l-17.412,2.138l-5.396,-39.405l23.419,-23.42l58.752,58.752l15.07,-15.069l12.321,12.32l-49.487,49.486Z" style="fill:#2f3606;fill-opacity:0.5;fill-rule:nonzero;"/><path d="M591.689,-48.469l-12.32,-12.32l19.143,-19.143l-47.654,-47.653l-0.916,0.916l4.48,33.398l-17.412,2.138l-5.396,-39.405l23.419,-23.42l58.752,58.752l15.07,-15.069l12.321,12.32l-49.487,49.486Z" style="fill:#2f3606;fill-opacity:0.5;fill-rule:nonzero;"/><path d="M270.903,272.318l-12.321,-12.321l19.143,-19.143l-47.653,-47.653l-0.917,0.917l4.48,33.398l-17.411,2.138l-5.397,-39.406l23.419,-23.419l58.752,58.752l15.07,-15.07l12.321,12.321l-49.486,49.486Z" style="fill:#2f3606;fill-opacity:0.5;fill-rule:nonzero;"/><path d="M331.997,211.224l-12.321,-12.321l19.143,-19.143l-47.653,-47.653l-0.917,0.917l4.48,33.398l-17.411,2.138l-5.397,-39.406l23.419,-23.419l58.753,58.752l15.069,-15.07l12.321,12.321l-49.486,49.486Z" style="fill:#2f3606;fill-opacity:0.5;fill-rule:nonzero;"/><path d="M138.415,404.806l-12.32,-12.321l19.142,-19.143l-47.653,-47.653l-0.916,0.916l4.48,33.398l-17.412,2.139l-5.397,-39.406l23.42,-23.419l58.752,58.752l15.07,-15.07l12.32,12.32l-49.486,49.487Z" style="fill:#2f3606;fill-opacity:0.5;fill-rule:nonzero;"/><path d="M199.509,343.712l-12.32,-12.321l19.142,-19.143l-47.653,-47.653l-0.916,0.916l4.48,33.398l-17.412,2.139l-5.397,-39.406l23.42,-23.419l58.752,58.752l15.07,-15.07l12.32,12.32l-49.486,49.487Z" style="fill:#2f3606;fill-opacity:0.5;fill-rule:nonzero;"/><path d="M295.611,52.073l-12.321,-12.32l19.143,-19.143l-47.654,-47.654l-0.916,0.917l4.48,33.398l-17.412,2.138l-5.396,-39.406l23.419,-23.419l58.752,58.752l15.07,-15.07l12.321,12.321l-49.486,49.486Z" style="fill:#2f3606;fill-opacity:0.5;fill-rule:nonzero;"/><path d="M356.705,-9.021l-12.321,-12.321l19.143,-19.142l-47.654,-47.654l-0.916,0.917l4.48,33.398l-17.412,2.138l-5.396,-39.406l23.419,-23.419l58.752,58.752l15.07,-15.07l12.321,12.321l-49.486,49.486Z" style="fill:#2f3606;fill-opacity:0.5;fill-rule:nonzero;"/><path d="M166.189,181.494l-12.32,-12.32l19.142,-19.143l-47.653,-47.653l-0.916,0.916l4.48,33.398l-17.412,2.138l-5.396,-39.405l23.419,-23.42l58.752,58.752l15.07,-15.069l12.32,12.32l-49.486,49.486Z" style="fill:#2f3606;fill-opacity:0.5;fill-rule:nonzero;"/><path d="M227.283,120.4l-12.32,-12.32l19.143,-19.143l-47.654,-47.653l-0.916,0.916l4.48,33.398l-17.412,2.138l-5.396,-39.405l23.419,-23.42l58.752,58.752l15.07,-15.069l12.321,12.32l-49.487,49.486Z" style="fill:#2f3606;fill-opacity:0.5;fill-rule:nonzero;"/><path d="M64.161,79.466l-12.321,-12.321l19.143,-19.142l-47.653,-47.654l-0.917,0.917l4.481,33.398l-17.412,2.138l-5.397,-39.406l23.419,-23.419l58.753,58.752l15.069,-15.07l12.321,12.321l-49.486,49.486Z" style="fill:#2f3606;fill-opacity:0.5;fill-rule:nonzero;"/><path d="M125.255,18.372l-12.321,-12.321l19.143,-19.143l-47.653,-47.653l-0.917,0.917l4.481,33.398l-17.412,2.138l-5.397,-39.406l23.419,-23.419l58.753,58.752l15.069,-15.07l12.321,12.321l-49.486,49.486Z" style="fill:#2f3606;fill-opacity:0.5;fill-rule:nonzero;"/><path d="M33.702,313.982l-12.321,-12.321l19.143,-19.142l-47.654,-47.654l-0.916,0.917l4.48,33.398l-17.411,2.138l-5.397,-39.406l23.419,-23.419l58.752,58.752l15.07,-15.07l12.321,12.321l-49.486,49.486Z" style="fill:#2f3606;fill-opacity:0.5;fill-rule:nonzero;"/><path d="M94.796,252.888l-12.321,-12.321l19.143,-19.142l-47.653,-47.654l-0.917,0.917l4.48,33.398l-17.411,2.138l-5.397,-39.406l23.419,-23.419l58.752,58.752l15.07,-15.07l12.321,12.321l-49.486,49.486Z" style="fill:#2f3606;fill-opacity:0.5;fill-rule:nonzero;"/><path d="M-66.925,213.356l-12.32,-12.321l19.143,-19.143l-47.654,-47.653l-0.916,0.917l4.48,33.398l-17.412,2.138l-5.396,-39.406l23.419,-23.419l58.752,58.752l15.07,-15.07l12.321,12.321l-49.487,49.486Z" style="fill:#2f3606;fill-opacity:0.5;fill-rule:nonzero;"/><path d="M-5.83,152.262l-12.321,-12.321l19.143,-19.143l-47.654,-47.653l-0.916,0.916l4.48,33.399l-17.412,2.138l-5.396,-39.406l23.419,-23.419l58.752,58.752l15.07,-15.07l12.321,12.321l-49.486,49.486Z" style="fill:#2f3606;fill-opacity:0.5;fill-rule:nonzero;"/><path d="M365.463,366.878l-12.321,-12.321l19.143,-19.143l-47.654,-47.653l-0.916,0.916l4.48,33.398l-17.412,2.139l-5.396,-39.406l23.419,-23.419l58.752,58.752l15.07,-15.07l12.321,12.321l-49.486,49.486Z" style="fill:#2f3606;fill-opacity:0.5;fill-rule:nonzero;"/><path d="M426.557,305.784l-12.321,-12.321l19.143,-19.143l-47.654,-47.653l-0.916,0.916l4.48,33.398l-17.412,2.139l-5.396,-39.406l23.419,-23.419l58.752,58.752l15.07,-15.07l12.321,12.321l-49.486,49.486Z" style="fill:#2f3606;fill-opacity:0.5;fill-rule:nonzero;"/></g><g id="_11-bg1" serif:id="11-bg"><path d="M667.901,112.751l-12.32,-12.321l19.143,-19.142l-47.654,-47.654l-0.916,0.917l4.48,33.398l-17.412,2.138l-5.396,-39.406l23.419,-23.419l58.752,58.752l15.07,-15.07l12.321,12.321l-49.487,49.486Z" style="fill:#2f3606;fill-opacity:0.25;fill-rule:nonzero;"/><path d="M728.995,51.657l-12.32,-12.321l19.143,-19.142l-47.654,-47.654l-0.916,0.917l4.48,33.398l-17.412,2.138l-5.396,-39.406l23.419,-23.419l58.752,58.752l15.07,-15.07l12.321,12.321l-49.487,49.486Z" style="fill:#2f3606;fill-opacity:0.25;fill-rule:nonzero;"/><path d="M637.681,338.675l-12.32,-12.32l19.143,-19.143l-47.654,-47.654l-0.916,0.917l4.48,33.398l-17.412,2.138l-5.396,-39.405l23.419,-23.42l58.752,58.752l15.07,-15.07l12.321,12.321l-49.487,49.486Z" style="fill:#2f3606;fill-opacity:0.25;fill-rule:nonzero;"/><path d="M698.775,277.581l-12.32,-12.32l19.143,-19.143l-47.654,-47.654l-0.916,0.917l4.48,33.398l-17.412,2.138l-5.396,-39.405l23.419,-23.42l58.752,58.752l15.07,-15.07l12.321,12.321l-49.487,49.486Z" style="fill:#2f3606;fill-opacity:0.25;fill-rule:nonzero;"/><path d="M767.586,208.77l-12.32,-12.321l19.143,-19.142l-47.654,-47.654l-0.916,0.917l4.48,33.398l-17.412,2.138l-5.396,-39.406l23.419,-23.419l58.752,58.752l15.07,-15.07l12.321,12.321l-49.487,49.486Z" style="fill:#2f3606;fill-opacity:0.25;fill-rule:nonzero;"/><path d="M828.68,147.676l-12.32,-12.321l19.143,-19.142l-47.654,-47.654l-0.916,0.917l4.48,33.398l-17.412,2.138l-5.396,-39.406l23.419,-23.419l58.752,58.752l15.07,-15.07l12.321,12.321l-49.487,49.486Z" style="fill:#2f3606;fill-opacity:0.25;fill-rule:nonzero;"/><path d="M899.841,76.516l-12.321,-12.321l19.143,-19.143l-47.653,-47.653l-0.917,0.916l4.48,33.399l-17.411,2.138l-5.397,-39.406l23.419,-23.419l58.752,58.752l15.07,-15.07l12.321,12.321l-49.486,49.486Z" style="fill:#2f3606;fill-opacity:0.25;fill-rule:nonzero;"/><path d="M960.935,15.422l-12.321,-12.321l19.143,-19.143l-47.653,-47.653l-0.917,0.916l4.48,33.399l-17.411,2.138l-5.397,-39.406l23.419,-23.419l58.752,58.752l15.07,-15.07l12.321,12.321l-49.486,49.486Z" style="fill:#2f3606;fill-opacity:0.25;fill-rule:nonzero;"/><path d="M523.471,452.886l-12.321,-12.321l19.143,-19.143l-47.653,-47.653l-0.917,0.916l4.48,33.399l-17.411,2.138l-5.397,-39.406l23.419,-23.419l58.752,58.752l15.07,-15.07l12.321,12.321l-49.486,49.486Z" style="fill:#2f3606;fill-opacity:0.25;fill-rule:nonzero;"/><path d="M584.565,391.792l-12.321,-12.321l19.143,-19.143l-47.653,-47.653l-0.917,0.916l4.48,33.399l-17.411,2.138l-5.397,-39.406l23.419,-23.419l58.752,58.752l15.07,-15.07l12.321,12.321l-49.486,49.486Z" style="fill:#2f3606;fill-opacity:0.25;fill-rule:nonzero;"/><path d="M444.114,146.687l-12.321,-12.321l19.143,-19.143l-47.653,-47.653l-0.917,0.916l4.481,33.398l-17.412,2.139l-5.397,-39.406l23.42,-23.419l58.752,58.752l15.07,-15.07l12.32,12.32l-49.486,49.487Z" style="fill:#2f3606;fill-opacity:0.25;fill-rule:nonzero;"/><path d="M505.208,85.593l-12.321,-12.321l19.143,-19.143l-47.653,-47.653l-0.917,0.916l4.481,33.398l-17.412,2.139l-5.397,-39.406l23.42,-23.419l58.752,58.752l15.07,-15.07l12.32,12.32l-49.486,49.487Z" style="fill:#2f3606;fill-opacity:0.25;fill-rule:nonzero;"/><path d="M957.29,391.597l-12.32,-12.32l19.143,-19.143l-47.654,-47.653l-0.916,0.916l4.48,33.398l-17.412,2.138l-5.396,-39.405l23.419,-23.42l58.752,58.752l15.07,-15.069l12.321,12.32l-49.487,49.486Z" style="fill:#2f3606;fill-opacity:0.25;fill-rule:nonzero;"/><path d="M1018.38,330.503l-12.32,-12.32l19.143,-19.143l-47.654,-47.653l-0.916,0.916l4.48,33.398l-17.412,2.138l-5.396,-39.405l23.419,-23.42l58.752,58.752l15.07,-15.069l12.321,12.32l-49.487,49.486Z" style="fill:#2f3606;fill-opacity:0.25;fill-rule:nonzero;"/><path d="M1086.15,262.736l-12.321,-12.321l19.143,-19.142l-47.653,-47.654l-0.917,0.917l4.481,33.398l-17.412,2.138l-5.397,-39.406l23.42,-23.419l58.752,58.752l15.069,-15.07l12.321,12.321l-49.486,49.486Z" style="fill:#2f3606;fill-opacity:0.25;fill-rule:nonzero;"/><path d="M1147.25,201.642l-12.321,-12.321l19.143,-19.143l-47.653,-47.653l-0.917,0.917l4.481,33.398l-17.412,2.138l-5.397,-39.406l23.42,-23.419l58.752,58.752l15.069,-15.07l12.321,12.321l-49.486,49.486Z" style="fill:#2f3606;fill-opacity:0.25;fill-rule:nonzero;"/><path d="M862.816,295.544l-12.321,-12.32l19.143,-19.143l-47.653,-47.653l-0.917,0.916l4.481,33.398l-17.412,2.138l-5.397,-39.405l23.42,-23.42l58.752,58.752l15.07,-15.07l12.32,12.321l-49.486,49.486Z" style="fill:#2f3606;fill-opacity:0.25;fill-rule:nonzero;"/><path d="M923.91,234.45l-12.321,-12.32l19.143,-19.143l-47.653,-47.654l-0.916,0.917l4.48,33.398l-17.412,2.138l-5.397,-39.405l23.42,-23.42l58.752,58.752l15.07,-15.07l12.32,12.321l-49.486,49.486Z" style="fill:#2f3606;fill-opacity:0.25;fill-rule:nonzero;"/><path d="M992.721,165.639l-12.32,-12.32l19.142,-19.143l-47.653,-47.654l-0.916,0.917l4.48,33.398l-17.412,2.138l-5.397,-39.405l23.42,-23.42l58.752,58.752l15.07,-15.07l12.32,12.321l-49.486,49.486Z" style="fill:#2f3606;fill-opacity:0.25;fill-rule:nonzero;"/><path d="M1053.82,104.545l-12.32,-12.32l19.142,-19.143l-47.653,-47.654l-0.916,0.917l4.48,33.398l-17.412,2.138l-5.397,-39.406l23.42,-23.419l58.752,58.752l15.07,-15.07l12.32,12.321l-49.486,49.486Z" style="fill:#2f3606;fill-opacity:0.25;fill-rule:nonzero;"/><path d="M748.605,409.755l-12.32,-12.321l19.143,-19.143l-47.654,-47.653l-0.916,0.917l4.48,33.398l-17.412,2.138l-5.396,-39.406l23.419,-23.419l58.752,58.752l15.07,-15.07l12.321,12.321l-49.487,49.486Z" style="fill:#2f3606;fill-opacity:0.25;fill-rule:nonzero;"/><path d="M809.699,348.661l-12.32,-12.321l19.143,-19.143l-47.654,-47.653l-0.916,0.917l4.48,33.398l-17.412,2.138l-5.396,-39.406l23.419,-23.419l58.752,58.752l15.07,-15.07l12.321,12.321l-49.487,49.486Z" style="fill:#2f3606;fill-opacity:0.25;fill-rule:nonzero;"/><path d="M574.385,16.415l-12.32,-12.32l19.142,-19.143l-47.653,-47.654l-0.916,0.917l4.48,33.398l-17.412,2.138l-5.396,-39.405l23.419,-23.42l58.752,58.752l15.07,-15.07l12.32,12.321l-49.486,49.486Z" style="fill:#2f3606;fill-opacity:0.25;fill-rule:nonzero;"/><path d="M635.479,-44.679l-12.32,-12.32l19.143,-19.143l-47.654,-47.654l-0.916,0.917l4.48,33.398l-17.412,2.138l-5.396,-39.405l23.419,-23.42l58.752,58.752l15.07,-15.07l12.321,12.321l-49.487,49.486Z" style="fill:#2f3606;fill-opacity:0.25;fill-rule:nonzero;"/><path d="M314.693,276.108l-12.321,-12.321l19.143,-19.143l-47.653,-47.653l-0.917,0.916l4.48,33.399l-17.411,2.138l-5.397,-39.406l23.419,-23.419l58.752,58.752l15.07,-15.07l12.321,12.321l-49.486,49.486Z" style="fill:#2f3606;fill-opacity:0.25;fill-rule:nonzero;"/><path d="M375.787,215.014l-12.321,-12.321l19.143,-19.143l-47.653,-47.653l-0.917,0.916l4.48,33.399l-17.411,2.138l-5.397,-39.406l23.419,-23.419l58.752,58.752l15.07,-15.07l12.321,12.321l-49.486,49.486Z" style="fill:#2f3606;fill-opacity:0.25;fill-rule:nonzero;"/><path d="M182.205,408.596l-12.321,-12.321l19.143,-19.143l-47.653,-47.653l-0.917,0.916l4.481,33.398l-17.412,2.139l-5.397,-39.406l23.42,-23.42l58.752,58.753l15.07,-15.07l12.32,12.32l-49.486,49.487Z" style="fill:#2f3606;fill-opacity:0.25;fill-rule:nonzero;"/><path d="M243.299,347.501l-12.321,-12.32l19.143,-19.143l-47.653,-47.653l-0.916,0.916l4.48,33.398l-17.412,2.138l-5.397,-39.405l23.42,-23.42l58.752,58.753l15.07,-15.07l12.32,12.32l-49.486,49.486Z" style="fill:#2f3606;fill-opacity:0.25;fill-rule:nonzero;"/><path d="M339.401,55.863l-12.321,-12.321l19.143,-19.142l-47.654,-47.654l-0.916,0.917l4.48,33.398l-17.412,2.138l-5.396,-39.406l23.419,-23.419l58.752,58.752l15.07,-15.07l12.321,12.321l-49.486,49.486Z" style="fill:#2f3606;fill-opacity:0.25;fill-rule:nonzero;"/><path d="M400.495,-5.231l-12.321,-12.321l19.143,-19.142l-47.654,-47.654l-0.916,0.917l4.48,33.398l-17.412,2.138l-5.396,-39.406l23.419,-23.419l58.752,58.752l15.07,-15.07l12.321,12.321l-49.486,49.486Z" style="fill:#2f3606;fill-opacity:0.25;fill-rule:nonzero;"/><path d="M209.979,185.284l-12.32,-12.32l19.142,-19.143l-47.653,-47.653l-0.916,0.916l4.48,33.398l-17.412,2.138l-5.397,-39.405l23.42,-23.42l58.752,58.752l15.07,-15.069l12.32,12.32l-49.486,49.486Z" style="fill:#2f3606;fill-opacity:0.25;fill-rule:nonzero;"/><path d="M271.073,124.19l-12.32,-12.32l19.142,-19.143l-47.653,-47.653l-0.916,0.916l4.48,33.398l-17.412,2.138l-5.397,-39.405l23.42,-23.42l58.752,58.752l15.07,-15.069l12.32,12.32l-49.486,49.486Z" style="fill:#2f3606;fill-opacity:0.25;fill-rule:nonzero;"/><path d="M107.951,83.256l-12.321,-12.321l19.143,-19.143l-47.653,-47.653l-0.917,0.917l4.48,33.398l-17.411,2.138l-5.397,-39.406l23.419,-23.419l58.752,58.752l15.07,-15.07l12.321,12.321l-49.486,49.486Z" style="fill:#2f3606;fill-opacity:0.25;fill-rule:nonzero;"/><path d="M169.045,22.162l-12.321,-12.321l19.143,-19.143l-47.653,-47.653l-0.917,0.916l4.48,33.399l-17.411,2.138l-5.397,-39.406l23.419,-23.419l58.752,58.752l15.07,-15.07l12.321,12.321l-49.486,49.486Z" style="fill:#2f3606;fill-opacity:0.25;fill-rule:nonzero;"/><path d="M77.492,317.772l-12.321,-12.321l19.143,-19.142l-47.654,-47.654l-0.916,0.917l4.48,33.398l-17.412,2.138l-5.396,-39.406l23.419,-23.419l58.752,58.752l15.07,-15.07l12.321,12.321l-49.486,49.486Z" style="fill:#2f3606;fill-opacity:0.25;fill-rule:nonzero;"/><path d="M138.586,256.678l-12.321,-12.321l19.143,-19.142l-47.654,-47.654l-0.916,0.917l4.48,33.398l-17.412,2.138l-5.396,-39.406l23.419,-23.419l58.752,58.752l15.07,-15.07l12.321,12.321l-49.486,49.486Z" style="fill:#2f3606;fill-opacity:0.25;fill-rule:nonzero;"/><path d="M-23.135,217.146l-12.32,-12.321l19.143,-19.143l-47.654,-47.653l-0.916,0.916l4.48,33.399l-17.412,2.138l-5.396,-39.406l23.419,-23.419l58.752,58.752l15.07,-15.07l12.321,12.321l-49.487,49.486Z" style="fill:#2f3606;fill-opacity:0.25;fill-rule:nonzero;"/><path d="M37.959,156.052l-12.32,-12.321l19.143,-19.143l-47.654,-47.653l-0.916,0.916l4.48,33.398l-17.412,2.139l-5.396,-39.406l23.419,-23.419l58.752,58.752l15.07,-15.07l12.321,12.321l-49.487,49.486Z" style="fill:#2f3606;fill-opacity:0.25;fill-rule:nonzero;"/><path d="M409.253,370.668l-12.321,-12.321l19.143,-19.143l-47.654,-47.653l-0.916,0.916l4.48,33.398l-17.412,2.139l-5.396,-39.406l23.419,-23.419l58.752,58.752l15.07,-15.07l12.321,12.32l-49.486,49.487Z" style="fill:#2f3606;fill-opacity:0.25;fill-rule:nonzero;"/><path d="M470.347,309.574l-12.321,-12.321l19.143,-19.143l-47.654,-47.653l-0.916,0.916l4.48,33.398l-17.412,2.139l-5.396,-39.406l23.419,-23.419l58.752,58.752l15.07,-15.07l12.321,12.32l-49.486,49.487Z" style="fill:#2f3606;fill-opacity:0.25;fill-rule:nonzero;"/><path d="M623.561,68.411l-12.321,-12.321l19.143,-19.143l-47.653,-47.653l-0.916,0.916l4.48,33.398l-17.412,2.139l-5.397,-39.406l23.42,-23.419l58.752,58.752l15.07,-15.07l12.32,12.321l-49.486,49.486Z" style="fill:#2f3606;fill-opacity:0.12;fill-rule:nonzero;"/><path d="M684.655,7.317l-12.32,-12.321l19.142,-19.143l-47.653,-47.653l-0.916,0.916l4.48,33.398l-17.412,2.139l-5.397,-39.406l23.42,-23.419l58.752,58.752l15.07,-15.07l12.32,12.321l-49.486,49.486Z" style="fill:#2f3606;fill-opacity:0.12;fill-rule:nonzero;"/><path d="M593.341,294.335l-12.321,-12.321l19.143,-19.143l-47.653,-47.653l-0.917,0.916l4.481,33.399l-17.412,2.138l-5.397,-39.406l23.42,-23.419l58.752,58.752l15.07,-15.07l12.32,12.321l-49.486,49.486Z" style="fill:#2f3606;fill-opacity:0.12;fill-rule:nonzero;"/><path d="M654.435,233.241l-12.321,-12.321l19.143,-19.143l-47.653,-47.653l-0.917,0.916l4.481,33.399l-17.412,2.138l-5.397,-39.406l23.42,-23.419l58.752,58.752l15.07,-15.07l12.32,12.321l-49.486,49.486Z" style="fill:#2f3606;fill-opacity:0.12;fill-rule:nonzero;"/><path d="M723.246,164.43l-12.321,-12.321l19.143,-19.143l-47.653,-47.653l-0.916,0.916l4.48,33.398l-17.412,2.139l-5.397,-39.406l23.42,-23.419l58.752,58.752l15.07,-15.07l12.32,12.321l-49.486,49.486Z" style="fill:#2f3606;fill-opacity:0.12;fill-rule:nonzero;"/><path d="M784.34,103.336l-12.32,-12.321l19.142,-19.143l-47.653,-47.653l-0.916,0.916l4.48,33.398l-17.412,2.139l-5.397,-39.406l23.42,-23.419l58.752,58.752l15.07,-15.07l12.32,12.321l-49.486,49.486Z" style="fill:#2f3606;fill-opacity:0.12;fill-rule:nonzero;"/><path d="M855.5,32.175l-12.32,-12.32l19.143,-19.143l-47.654,-47.653l-0.916,0.916l4.48,33.398l-17.412,2.138l-5.396,-39.405l23.419,-23.42l58.752,58.753l15.07,-15.07l12.321,12.32l-49.487,49.486Z" style="fill:#2f3606;fill-opacity:0.12;fill-rule:nonzero;"/><path d="M916.594,-28.919l-12.32,-12.32l19.143,-19.143l-47.654,-47.653l-0.916,0.916l4.48,33.398l-17.412,2.138l-5.396,-39.405l23.419,-23.42l58.752,58.753l15.07,-15.07l12.321,12.32l-49.487,49.486Z" style="fill:#2f3606;fill-opacity:0.12;fill-rule:nonzero;"/><path d="M479.13,408.545l-12.32,-12.32l19.143,-19.143l-47.654,-47.653l-0.916,0.916l4.48,33.398l-17.412,2.138l-5.396,-39.405l23.419,-23.42l58.752,58.753l15.07,-15.07l12.321,12.32l-49.487,49.486Z" style="fill:#2f3606;fill-opacity:0.12;fill-rule:nonzero;"/><path d="M540.224,347.451l-12.32,-12.32l19.143,-19.143l-47.654,-47.653l-0.916,0.916l4.48,33.398l-17.412,2.138l-5.396,-39.405l23.419,-23.42l58.752,58.753l15.07,-15.07l12.321,12.32l-49.487,49.486Z" style="fill:#2f3606;fill-opacity:0.12;fill-rule:nonzero;"/><path d="M399.774,102.346l-12.321,-12.32l19.143,-19.143l-47.654,-47.654l-0.916,0.917l4.48,33.398l-17.412,2.138l-5.396,-39.405l23.419,-23.42l58.752,58.752l15.07,-15.07l12.321,12.321l-49.486,49.486Z" style="fill:#2f3606;fill-opacity:0.12;fill-rule:nonzero;"/><path d="M460.868,41.252l-12.321,-12.32l19.143,-19.143l-47.654,-47.654l-0.916,0.917l4.48,33.398l-17.411,2.138l-5.397,-39.405l23.419,-23.42l58.752,58.752l15.07,-15.07l12.321,12.321l-49.486,49.486Z" style="fill:#2f3606;fill-opacity:0.12;fill-rule:nonzero;"/><path d="M912.95,347.257l-12.321,-12.321l19.143,-19.142l-47.653,-47.654l-0.916,0.917l4.48,33.398l-17.412,2.138l-5.397,-39.406l23.42,-23.419l58.752,58.752l15.07,-15.07l12.32,12.321l-49.486,49.486Z" style="fill:#2f3606;fill-opacity:0.12;fill-rule:nonzero;"/><path d="M974.044,286.163l-12.321,-12.321l19.143,-19.142l-47.653,-47.654l-0.916,0.917l4.48,33.398l-17.412,2.138l-5.397,-39.406l23.42,-23.419l58.752,58.752l15.07,-15.07l12.32,12.321l-49.486,49.486Z" style="fill:#2f3606;fill-opacity:0.12;fill-rule:nonzero;"/><path d="M1041.81,218.396l-12.321,-12.321l19.143,-19.143l-47.654,-47.653l-0.916,0.916l4.48,33.398l-17.412,2.139l-5.396,-39.406l23.419,-23.419l58.752,58.752l15.07,-15.07l12.321,12.32l-49.486,49.487Z" style="fill:#2f3606;fill-opacity:0.12;fill-rule:nonzero;"/><path d="M1102.91,157.302l-12.321,-12.321l19.143,-19.143l-47.654,-47.653l-0.916,0.916l4.48,33.398l-17.412,2.139l-5.396,-39.406l23.419,-23.419l58.752,58.752l15.07,-15.07l12.321,12.32l-49.486,49.487Z" style="fill:#2f3606;fill-opacity:0.12;fill-rule:nonzero;"/><path d="M818.476,251.204l-12.321,-12.321l19.143,-19.143l-47.653,-47.653l-0.917,0.917l4.48,33.398l-17.411,2.138l-5.397,-39.406l23.419,-23.419l58.752,58.752l15.07,-15.07l12.321,12.321l-49.486,49.486Z" style="fill:#2f3606;fill-opacity:0.12;fill-rule:nonzero;"/><path d="M879.57,190.11l-12.321,-12.321l19.143,-19.143l-47.653,-47.653l-0.917,0.917l4.48,33.398l-17.411,2.138l-5.397,-39.406l23.419,-23.419l58.752,58.752l15.07,-15.07l12.321,12.321l-49.486,49.486Z" style="fill:#2f3606;fill-opacity:0.12;fill-rule:nonzero;"/><path d="M948.381,121.299l-12.321,-12.321l19.143,-19.143l-47.653,-47.653l-0.917,0.916l4.48,33.399l-17.411,2.138l-5.397,-39.406l23.419,-23.419l58.753,58.752l15.069,-15.07l12.321,12.321l-49.486,49.486Z" style="fill:#2f3606;fill-opacity:0.12;fill-rule:nonzero;"/><path d="M1009.48,60.205l-12.321,-12.321l19.143,-19.143l-47.653,-47.653l-0.917,0.916l4.481,33.398l-17.412,2.139l-5.397,-39.406l23.419,-23.419l58.753,58.752l15.069,-15.07l12.321,12.321l-49.486,49.486Z" style="fill:#2f3606;fill-opacity:0.12;fill-rule:nonzero;"/><path d="M704.265,365.415l-12.321,-12.321l19.143,-19.143l-47.653,-47.653l-0.916,0.916l4.48,33.398l-17.412,2.139l-5.397,-39.406l23.42,-23.419l58.752,58.752l15.07,-15.07l12.32,12.32l-49.486,49.487Z" style="fill:#2f3606;fill-opacity:0.12;fill-rule:nonzero;"/><path d="M765.359,304.321l-12.321,-12.321l19.143,-19.143l-47.653,-47.653l-0.916,0.916l4.48,33.398l-17.412,2.139l-5.397,-39.406l23.42,-23.419l58.752,58.752l15.07,-15.07l12.32,12.32l-49.486,49.487Z" style="fill:#2f3606;fill-opacity:0.12;fill-rule:nonzero;"/><path d="M270.352,231.767l-12.32,-12.32l19.143,-19.143l-47.654,-47.653l-0.916,0.916l4.48,33.398l-17.412,2.138l-5.396,-39.405l23.419,-23.42l58.752,58.753l15.07,-15.07l12.321,12.32l-49.487,49.486Z" style="fill:#2f3606;fill-opacity:0.12;fill-rule:nonzero;"/><path d="M331.446,170.673l-12.32,-12.32l19.143,-19.143l-47.654,-47.653l-0.916,0.916l4.48,33.398l-17.412,2.138l-5.396,-39.405l23.419,-23.42l58.752,58.753l15.07,-15.07l12.321,12.32l-49.487,49.486Z" style="fill:#2f3606;fill-opacity:0.12;fill-rule:nonzero;"/><path d="M137.865,364.255l-12.321,-12.32l19.143,-19.143l-47.653,-47.654l-0.917,0.917l4.48,33.398l-17.411,2.138l-5.397,-39.405l23.419,-23.42l58.752,58.752l15.07,-15.07l12.321,12.321l-49.486,49.486Z" style="fill:#2f3606;fill-opacity:0.12;fill-rule:nonzero;"/><path d="M198.959,303.161l-12.321,-12.321l19.143,-19.142l-47.653,-47.654l-0.917,0.917l4.48,33.398l-17.411,2.138l-5.397,-39.406l23.419,-23.419l58.752,58.752l15.07,-15.07l12.321,12.321l-49.486,49.486Z" style="fill:#2f3606;fill-opacity:0.12;fill-rule:nonzero;"/><path d="M295.06,11.523l-12.32,-12.321l19.142,-19.143l-47.653,-47.653l-0.916,0.916l4.48,33.398l-17.412,2.139l-5.397,-39.406l23.42,-23.419l58.752,58.752l15.07,-15.07l12.32,12.321l-49.486,49.486Z" style="fill:#2f3606;fill-opacity:0.12;fill-rule:nonzero;"/><path d="M356.154,-49.571l-12.32,-12.321l19.142,-19.143l-47.653,-47.653l-0.916,0.916l4.48,33.398l-17.412,2.139l-5.397,-39.406l23.42,-23.419l58.752,58.752l15.07,-15.07l12.32,12.321l-49.486,49.486Z" style="fill:#2f3606;fill-opacity:0.12;fill-rule:nonzero;"/><path d="M165.639,140.944l-12.321,-12.321l19.143,-19.142l-47.653,-47.654l-0.917,0.917l4.481,33.398l-17.412,2.138l-5.397,-39.406l23.419,-23.419l58.753,58.752l15.069,-15.07l12.321,12.321l-49.486,49.486Z" style="fill:#2f3606;fill-opacity:0.12;fill-rule:nonzero;"/><path d="M226.733,79.85l-12.321,-12.321l19.143,-19.142l-47.653,-47.654l-0.917,0.917l4.481,33.398l-17.412,2.138l-5.397,-39.406l23.42,-23.419l58.752,58.752l15.069,-15.07l12.321,12.321l-49.486,49.486Z" style="fill:#2f3606;fill-opacity:0.12;fill-rule:nonzero;"/><path d="M63.61,38.915l-12.32,-12.32l19.143,-19.143l-47.654,-47.653l-0.916,0.916l4.48,33.398l-17.412,2.139l-5.396,-39.406l23.419,-23.42l58.752,58.753l15.07,-15.07l12.321,12.32l-49.487,49.486Z" style="fill:#2f3606;fill-opacity:0.12;fill-rule:nonzero;"/><path d="M124.704,-22.179l-12.32,-12.32l19.143,-19.143l-47.654,-47.653l-0.916,0.916l4.48,33.398l-17.412,2.138l-5.396,-39.405l23.419,-23.42l58.752,58.753l15.07,-15.07l12.321,12.32l-49.487,49.486Z" style="fill:#2f3606;fill-opacity:0.12;fill-rule:nonzero;"/><path d="M33.151,273.432l-12.32,-12.321l19.142,-19.143l-47.653,-47.653l-0.916,0.916l4.48,33.398l-17.412,2.139l-5.397,-39.406l23.42,-23.419l58.752,58.752l15.07,-15.07l12.32,12.32l-49.486,49.487Z" style="fill:#2f3606;fill-opacity:0.12;fill-rule:nonzero;"/><path d="M94.245,212.338l-12.32,-12.321l19.142,-19.143l-47.653,-47.653l-0.916,0.916l4.48,33.398l-17.412,2.139l-5.397,-39.406l23.42,-23.419l58.752,58.752l15.07,-15.07l12.32,12.32l-49.486,49.487Z" style="fill:#2f3606;fill-opacity:0.12;fill-rule:nonzero;"/><path d="M-67.475,172.805l-12.321,-12.32l19.143,-19.143l-47.653,-47.653l-0.917,0.916l4.481,33.398l-17.412,2.138l-5.397,-39.405l23.42,-23.42l58.752,58.753l15.07,-15.07l12.32,12.32l-49.486,49.486Z" style="fill:#2f3606;fill-opacity:0.12;fill-rule:nonzero;"/><path d="M-6.381,111.711l-12.321,-12.32l19.143,-19.143l-47.653,-47.653l-0.917,0.916l4.481,33.398l-17.412,2.138l-5.397,-39.405l23.42,-23.42l58.752,58.752l15.07,-15.069l12.32,12.32l-49.486,49.486Z" style="fill:#2f3606;fill-opacity:0.12;fill-rule:nonzero;"/><path d="M364.912,326.327l-12.32,-12.32l19.142,-19.143l-47.653,-47.654l-0.916,0.917l4.48,33.398l-17.412,2.138l-5.397,-39.405l23.42,-23.42l58.752,58.752l15.07,-15.07l12.32,12.321l-49.486,49.486Z" style="fill:#2f3606;fill-opacity:0.12;fill-rule:nonzero;"/><path d="M426.006,265.233l-12.32,-12.32l19.142,-19.143l-47.653,-47.654l-0.916,0.917l4.48,33.398l-17.412,2.138l-5.397,-39.405l23.42,-23.42l58.752,58.752l15.07,-15.07l12.32,12.321l-49.486,49.486Z" style="fill:#2f3606;fill-opacity:0.12;fill-rule:nonzero;"/></g><g id="_11---middle" serif:id="11 - middle"><path d="M495.25,237.823l-12.321,-12.321l19.143,-19.143l-47.653,-47.653l-0.917,0.916l4.481,33.398l-17.412,2.139l-5.397,-39.406l23.42,-23.419l58.752,58.752l15.07,-15.07l12.32,12.321l-49.486,49.486Z" style="fill-rule:nonzero;"/><path d="M556.344,176.729l-12.321,-12.321l19.143,-19.143l-47.653,-47.653l-0.917,0.916l4.481,33.398l-17.412,2.139l-5.397,-39.406l23.42,-23.419l58.752,58.752l15.07,-15.07l12.32,12.32l-49.486,49.487Z" style="fill-rule:nonzero;"/></g></svg>