<?xml version="1.0" encoding="UTF-8" standalone="no"?>
<!DOCTYPE svg PUBLIC "-//W3C//DTD SVG 1.1//EN" "http://www.w3.org/Graphics/SVG/1.1/DTD/svg11.dtd">
<svg width="100%" height="100%" viewBox="0 0 200 200" version="1.1" xmlns="http://www.w3.org/2000/svg" xmlns:xlink="http://www.w3.org/1999/xlink" xml:space="preserve" xmlns:serif="http://www.serif.com/" style="fill-rule:evenodd;clip-rule:evenodd;stroke-linecap:round;stroke-linejoin:round;stroke-miterlimit:1.5;">
    <g id="hoodie" transform="matrix(1.27525,0,0,1.27525,-27.4772,-31.255)">
        <path d="M49.276,200.248C49.313,196.306 49.351,191.907 49.351,186.996C49.351,162.61 71.972,142.811 99.834,142.811C127.697,142.811 150.317,162.61 150.317,186.996C150.317,191.869 150.345,196.272 150.376,200.248L49.276,200.248Z"/>
    </g>
    <g id="neck" transform="matrix(1.39488,0,0,0.501301,-28.6694,66.6274)">
        <path d="M101.444,135.648L83.159,135.648L83.159,186.54C86.845,210.941 97.413,210.735 101.444,186.54L101.444,135.648Z" style="fill:rgb(241,204,161);"/>
    </g>
    <g id="neck_shadow" transform="matrix(1.28246,0,0,0.704521,-28.0991,45.15)">
        <path d="M109.922,136.922L90.034,136.922L90.034,147.31C90.034,147.31 96.701,148.784 100.015,148.784C103.33,148.784 109.922,147.314 109.922,147.314L109.922,136.922Z" style="fill:rgb(84,41,41);fill-opacity:0.25;"/>
    </g>
    <g id="face" transform="matrix(1.25807,0,0,1.51613,2.39825,-54.8539)">
        <path d="M77.644,51.256C99.148,51.256 116.606,68.715 116.606,90.218C116.606,111.722 108.705,129.044 77.644,129.18C46.584,129.317 38.682,111.722 38.682,90.218C38.682,68.715 56.141,51.256 77.644,51.256Z" style="fill:rgb(241,204,161);"/>
    </g>
    <g id="piercing_right" transform="matrix(1.27525,0,0,1.27525,-27.4772,-31.255)">
        <circle cx="88.81" cy="119.982" r="0.916" style="fill:rgb(147,147,147);"/>
    </g>
    <g id="piercing_right1" serif:id="piercing_right" transform="matrix(1.27525,0,0,1.27525,4.75766,-31.255)">
        <circle cx="88.81" cy="119.982" r="0.916" style="fill:rgb(147,147,147);"/>
    </g>
    <g id="mouth" transform="matrix(1.27525,0,0,1.27525,-122.148,-29.8764)">
        <path d="M162.258,115.484C165.628,118.519 185.475,119.907 189.928,114.299" style="fill:none;stroke:black;stroke-width:0.78px;"/>
    </g>
    <g id="ear_right" transform="matrix(1.90786,0,0,1.90786,-144.782,-98.4231)">
        <circle cx="154.921" cy="108.161" r="4.563" style="fill:rgb(241,204,161);"/>
    </g>
    <g id="ear_left" transform="matrix(1.90786,0,0,1.90786,-245.648,-98.4231)">
        <circle cx="154.921" cy="108.161" r="4.563" style="fill:rgb(241,204,161);"/>
    </g>
    <g id="ear_left_plug" transform="matrix(1.27525,0,0,1.27525,-39.9265,-31.0007)">
        <circle cx="148.607" cy="113.221" r="1.077"/>
    </g>
    <g id="beard" transform="matrix(1.27525,0,0,1.27525,-27.4772,-31.255)">
        <path d="M62.514,102.566C62.514,102.566 76.188,121.482 88.065,108.658C88.386,108.312 94.981,107.221 102.063,107.279C109.646,107.341 117.734,108.568 117.614,108.706C122.945,120.184 137.514,102.709 137.514,102.709C138.291,112.787 135.565,137.716 99.923,137.652C64.281,137.587 64.744,112.55 62.514,102.566ZM102.169,110.198C111.383,110.198 119.23,111.075 118.927,115.556C118.218,126.007 111.343,126.761 102.129,126.761C92.914,126.761 85.703,126.407 85.769,115.522C85.796,111.031 92.954,110.198 102.169,110.198Z" style="fill:rgb(52,4,4);"/>
    </g>
    <g id="nose" transform="matrix(0.484307,0,0,0.266055,52.3859,57.715)">
        <path d="M109.922,136.922C108.247,136.16 104.032,143.344 99.844,143.352C95.746,143.36 91.674,136.176 90.034,136.922C87.288,138.172 94.233,148.797 100.015,148.575C105.798,148.353 112.668,138.172 109.922,136.922Z" style="fill:rgb(84,41,41);fill-opacity:0.25;"/>
    </g>
    <g id="eye_right" transform="matrix(1.29455,0,0,1.27525,-91.8908,-20.8571)">
        <circle cx="165.098" cy="79.295" r="3.635"/>
    </g>
    <g id="eye_left" transform="matrix(1.29455,0,0,1.27525,-135.708,-20.8571)">
        <circle cx="165.098" cy="79.295" r="3.635"/>
    </g>
    <g id="hair" transform="matrix(1.27525,0,0,1.27525,-27.4772,-31.255)">
        <path d="M108.77,42.008C107.952,40.799 107.272,37.941 107.272,36.374C107.272,32.197 110.335,27.767 114.46,27.111C124.867,25.456 127.994,32.16 128.021,36.336C128.06,42.622 120.267,44.176 117.076,45.066C145.469,56.382 137.538,102.711 137.538,102.711C134.835,85.568 146.633,60.661 99.618,60.229C52.879,59.8 64.438,88.112 62.514,102.566C62.514,102.566 52.646,40.115 99.791,40.892C103.048,40.946 106.033,41.36 108.77,42.008Z" style="fill:rgb(52,4,4);"/>
    </g>
    <g id="glasses" transform="matrix(0.400951,0,0,0.400951,25.9134,-33.3096)">
        <path d="M185.845,270.437C180.17,270.337 173.972,288.622 164.517,312.96C161.251,321.366 143.675,326.915 125.378,328.74C70.034,334.26 76.774,305.377 70.915,262.871L60.931,262.851C57.589,259.042 57.548,255.521 61.746,252.37C104.634,241.896 117.017,239.849 150.179,245.455C165.742,248.086 173.98,254.888 185.88,254.888C197.78,254.888 206.017,248.086 221.58,245.455C254.742,239.849 267.125,241.896 310.013,252.37C314.211,255.521 314.17,259.042 310.829,262.851L300.845,262.871C294.985,305.377 301.725,334.26 246.382,328.74C228.085,326.915 210.403,320.759 207.137,312.353C197.645,287.92 191.96,270.456 185.88,270.429C185.88,270.429 185.857,270.437 185.845,270.437ZM124.557,249.122C142.883,249.771 183.504,247.097 166.688,290.614C158.704,311.273 151.797,320.044 123.63,322.986C90.046,326.493 81.44,314.685 78.002,285.769C73.124,244.745 100.209,248.258 124.557,249.122ZM247.203,249.122C228.876,249.771 188.256,247.097 205.072,290.614C213.055,311.273 219.962,320.044 248.13,322.986C281.713,326.493 290.32,314.685 293.758,285.769C298.635,244.745 271.551,248.258 247.203,249.122Z"/>
    </g>
</svg>
